<svg width="24" height="24" viewBox="0 0 24 24" fill="none" xmlns="http://www.w3.org/2000/svg">
<path fill-rule="evenodd" clip-rule="evenodd" d="M12 10.1811L21.804 0.375428C22.0543 0.125143 22.3851 0 22.7143 0C23.4069 0 24 0.555428 24 1.284C24 1.61486 23.8749 1.944 23.6246 2.196L13.8189 12L23.6229 21.804C23.8749 22.056 24 22.3851 24 22.7143C24 23.4463 23.4017 24 22.7143 24C22.3851 24 22.0543 23.8749 21.804 23.6246L12 13.8206L2.196 23.6246C1.94571 23.8749 1.61486 24 1.28571 24C0.598286 24 0 23.4463 0 22.7143C0 22.3851 0.125142 22.056 0.377143 21.804L10.1811 12L0.375428 2.196C0.125143 1.944 0 1.61486 0 1.284C0 0.555428 0.593143 0 1.28571 0C1.61486 0 1.94571 0.125143 2.196 0.375428L12 10.1811Z" fill="white"/>
</svg>
