<svg width="25" height="19" viewBox="0 0 25 19" fill="none" xmlns="http://www.w3.org/2000/svg">
<path fill-rule="evenodd" clip-rule="evenodd" d="M0.960938 2.64287C0.960938 1.6961 1.72845 0.928589 2.67522 0.928589H23.2467C24.1934 0.928589 24.9609 1.6961 24.9609 2.64287V16.3572C24.9609 17.3039 24.1934 18.0714 23.2467 18.0714H2.67522C1.72845 18.0714 0.960938 17.3039 0.960938 16.3572V2.64287ZM23.2467 2.64287H2.67522V16.3572H23.2467V2.64287Z" fill="white"/>
<path fill-rule="evenodd" clip-rule="evenodd" d="M16.3895 13.7857C16.3895 13.3123 16.7733 12.9286 17.2467 12.9286H20.6752C21.1486 12.9286 21.5324 13.3123 21.5324 13.7857C21.5324 14.2591 21.1486 14.6429 20.6752 14.6429H17.2467C16.7733 14.6429 16.3895 14.2591 16.3895 13.7857Z" fill="white"/>
<path fill-rule="evenodd" clip-rule="evenodd" d="M11.2467 13.7857C11.2467 13.3123 11.6304 12.9286 12.1038 12.9286H13.8181C14.2915 12.9286 14.6752 13.3123 14.6752 13.7857C14.6752 14.2591 14.2915 14.6429 13.8181 14.6429H12.1038C11.6304 14.6429 11.2467 14.2591 11.2467 13.7857Z" fill="white"/>
<path fill-rule="evenodd" clip-rule="evenodd" d="M0.960938 6.16854C0.960938 5.69516 1.34469 5.3114 1.81808 5.3114H24.1038C24.5772 5.3114 24.9609 5.69516 24.9609 6.16854C24.9609 6.64193 24.5772 7.02569 24.1038 7.02569H1.81808C1.34469 7.02569 0.960938 6.64193 0.960938 6.16854Z" fill="white"/>
</svg>
