<svg width="29" height="25" viewBox="0 0 29 25" fill="none" xmlns="http://www.w3.org/2000/svg">
<path d="M15.647 23.4874L25.772 13.3624C28.2595 10.8624 28.622 6.77493 26.272 4.16243C25.6826 3.50407 24.9652 2.97278 24.1636 2.60103C23.362 2.22929 22.493 2.02488 21.6097 2.00032C20.7265 1.97575 19.8474 2.13153 19.0264 2.45814C18.2054 2.78476 17.4595 3.27534 16.8345 3.89993L14.9345 5.81243L13.297 4.16243C10.797 1.67493 6.7095 1.31243 4.097 3.66243C3.43864 4.25179 2.90735 4.96919 2.5356 5.7708C2.16386 6.57242 1.95945 7.44141 1.93489 8.32469C1.91032 9.20797 2.0661 10.087 2.39271 10.908C2.71933 11.7291 3.20991 12.4749 3.8345 13.0999L14.222 23.4874C14.4116 23.6752 14.6677 23.7806 14.9345 23.7806C15.2013 23.7806 15.4574 23.6752 15.647 23.4874V23.4874Z" stroke="#D9D9D9" stroke-width="2" stroke-linecap="round" stroke-linejoin="round"/>
</svg>
