<svg width="28" height="24" viewBox="0 0 28 24" fill="none" xmlns="http://www.w3.org/2000/svg">
<path d="M14.7146 22.4896L24.8396 12.3646C27.3271 9.86463 27.6896 5.77713 25.3396 3.16463C24.7503 2.50626 24.0329 1.97498 23.2312 1.60323C22.4296 1.23148 21.5606 1.02708 20.6774 1.00251C19.7941 0.977945 18.9151 1.13373 18.094 1.46034C17.273 1.78695 16.5272 2.27754 15.9021 2.90213L14.0021 4.81463L12.3646 3.16463C9.86463 0.677125 5.77713 0.314625 3.16463 2.66463C2.50626 3.25398 1.97498 3.97139 1.60323 4.773C1.23148 5.57462 1.02708 6.44361 1.00251 7.32689C0.977945 8.21017 1.13373 9.08918 1.46034 9.91022C1.78695 10.7313 2.27754 11.4771 2.90213 12.1021L8.09588 17.2959L13.2896 22.4896C13.4792 22.6774 13.7353 22.7828 14.0021 22.7828C14.269 22.7828 14.525 22.6774 14.7146 22.4896Z" fill="#EA1D2C" stroke="#D9D9D9" stroke-width="2" stroke-linecap="round" stroke-linejoin="round"/>
</svg>
