<svg width="29" height="25" viewBox="0 0 29 25" fill="none" xmlns="http://www.w3.org/2000/svg">
<path d="M15.1736 23.4874L25.2986 13.3624C27.7861 10.8624 28.1486 6.77493 25.7986 4.16243C25.2093 3.50407 24.4918 2.97278 23.6902 2.60103C22.8886 2.22929 22.0196 2.02488 21.1363 2.00032C20.2531 1.97575 19.3741 2.13153 18.553 2.45814C17.732 2.78476 16.9862 3.27534 16.3611 3.89993L14.4611 5.81243L12.8236 4.16243C10.3236 1.67493 6.23611 1.31243 3.62361 3.66243C2.96525 4.25179 2.43396 4.96919 2.06221 5.7708C1.69047 6.57242 1.48607 7.44141 1.4615 8.32469C1.43693 9.20797 1.59271 10.087 1.91933 10.908C2.24594 11.7291 2.73653 12.4749 3.36111 13.0999L8.55486 18.2937L13.7486 23.4874C13.9382 23.6752 14.1943 23.7806 14.4611 23.7806C14.728 23.7806 14.984 23.6752 15.1736 23.4874Z" fill="#EA1D2C" stroke="#D9D9D9" stroke-width="2" stroke-linecap="round" stroke-linejoin="round"/>
</svg>
