<svg width="24" height="24" viewBox="0 0 24 24" fill="none" xmlns="http://www.w3.org/2000/svg">
<path d="M24 22.4348C24 21.5708 23.5968 20.8696 23.1 20.8696H0.9C0.4032 20.8696 0 21.5708 0 22.4348C0 23.2988 0.4032 24 0.9 24H23.1C23.5968 24 24 23.2988 24 22.4348ZM24 12C24 11.136 23.5968 10.4348 23.1 10.4348H0.9C0.4032 10.4348 0 11.136 0 12C0 12.864 0.4032 13.5652 0.9 13.5652H23.1C23.5968 13.5652 24 12.864 24 12ZM24 1.56522C24 0.701217 23.5968 0 23.1 0H0.9C0.4032 0 0 0.701217 0 1.56522C0 2.42922 0.4032 3.13043 0.9 3.13043H23.1C23.5968 3.13043 24 2.42922 24 1.56522Z" fill="white"/>
</svg>
