<svg width="27" height="23" viewBox="0 0 27 23" fill="none" xmlns="http://www.w3.org/2000/svg">
<path fill-rule="evenodd" clip-rule="evenodd" d="M5.96094 8.14111C5.96094 7.58883 6.40865 7.14111 6.96094 7.14111H19.9609C20.5132 7.14111 20.9609 7.58883 20.9609 8.14111C20.9609 8.6934 20.5132 9.14111 19.9609 9.14111H6.96094C6.40865 9.14111 5.96094 8.6934 5.96094 8.14111Z" fill="white"/>
<path fill-rule="evenodd" clip-rule="evenodd" d="M5.96094 12.1411C5.96094 11.5888 6.40865 11.1411 6.96094 11.1411H19.9609C20.5132 11.1411 20.9609 11.5888 20.9609 12.1411C20.9609 12.6934 20.5132 13.1411 19.9609 13.1411H6.96094C6.40865 13.1411 5.96094 12.6934 5.96094 12.1411Z" fill="white"/>
<path fill-rule="evenodd" clip-rule="evenodd" d="M1.04672 0.7269C1.4218 0.351828 1.9305 0.141113 2.46094 0.141113H24.4609C24.9914 0.141113 25.5001 0.351827 25.8752 0.7269C26.2502 1.10197 26.4609 1.61068 26.4609 2.14111V21.1411C26.4609 21.4877 26.2815 21.8096 25.9867 21.9918C25.6919 22.174 25.3237 22.1905 25.0137 22.0355L21.4609 20.2591L17.9082 22.0355C17.6266 22.1763 17.2953 22.1763 17.0137 22.0355L13.4609 20.2591L9.90815 22.0355C9.62662 22.1763 9.29525 22.1763 9.01372 22.0355L5.46094 20.2591L1.90815 22.0355C1.59816 22.1905 1.23002 22.174 0.935206 21.9918C0.64039 21.8096 0.460938 21.4877 0.460938 21.1411V2.14111C0.460938 1.61068 0.671652 1.10197 1.04672 0.7269ZM24.4609 2.14111L2.46094 2.14111L2.46094 19.5231L5.01372 18.2467C5.29525 18.1059 5.62662 18.1059 5.90815 18.2467L9.46094 20.0231L13.0137 18.2467C13.2953 18.1059 13.6266 18.1059 13.9082 18.2467L17.4609 20.0231L21.0137 18.2467C21.2953 18.1059 21.6266 18.1059 21.9082 18.2467L24.4609 19.5231V2.14111Z" fill="white"/>
</svg>
