<svg width="25" height="25" viewBox="0 0 25 25" fill="none" xmlns="http://www.w3.org/2000/svg">
<path d="M15.9776 18.5353L15.9777 18.5355C16.422 18.9795 16.9439 19.3203 17.5125 19.545L14.3321 22.7255C13.2987 23.7588 11.6233 23.7588 10.59 22.7255L10.59 22.7255L7.49674 19.6323C8.14361 19.4118 8.73681 19.0447 9.23312 18.5486L9.23331 18.5484L12.612 15.1696L15.9776 18.5353Z" stroke="white" stroke-width="2"/>
<path d="M17.5123 5.45496C16.9437 5.67964 16.4218 6.02041 15.9775 6.46448L15.9773 6.46468L12.6117 9.83066L9.23315 6.45154L9.23292 6.45131C8.73664 5.95527 8.14349 5.58812 7.49668 5.3677L10.5898 2.27455L10.5898 2.27452C11.6231 1.24122 13.2984 1.24113 14.332 2.27454C14.332 2.27455 14.332 2.27457 14.332 2.27458L17.5123 5.45496ZM12.3766 10.0657C12.377 10.0654 12.3773 10.0651 12.3776 10.0647L12.3766 10.0657ZM12.8461 10.0652L12.846 10.0651C12.8461 10.0651 12.8461 10.0651 12.8461 10.0652Z" stroke="white" stroke-width="2"/>
<mask id="path-3-inside-1_172_858" fill="white">
<path d="M23.3931 9.92191L20.6301 7.15895C20.5693 7.18331 20.5034 7.19852 20.4339 7.19852H19.1776C18.5282 7.19852 17.8924 7.46195 17.4335 7.92121L13.8339 11.5209C13.497 11.8578 13.0544 12.0263 12.6121 12.0263C12.1695 12.0263 11.7272 11.8578 11.3904 11.5213L7.77722 7.90805C7.31829 7.44869 6.68252 7.18537 6.03306 7.18537H4.48839C4.4225 7.18537 4.36093 7.16984 4.30281 7.14795L1.52887 9.92191C0.104961 11.3458 0.104961 13.6543 1.52887 15.0782L4.3027 17.852C4.36093 17.8301 4.4225 17.8146 4.48839 17.8146H6.03306C6.68252 17.8146 7.31829 17.5513 7.77722 17.092L11.3901 13.4792C12.0431 12.8267 13.1815 12.8264 13.8339 13.4795L17.4335 17.0789C17.8924 17.5381 18.5282 17.8015 19.1776 17.8015H20.4339C20.5034 17.8015 20.5693 17.8167 20.6301 17.8411L23.3931 15.0782C24.8169 13.6543 24.8169 11.3458 23.3931 9.92189"/>
</mask>
<path d="M20.6301 7.15895L22.0443 5.74474L21.1113 4.81172L19.8864 5.30236L20.6301 7.15895ZM17.4335 7.92121L18.8477 9.3354L18.8482 9.33492L17.4335 7.92121ZM13.8339 11.5209L15.2481 12.9351L15.2481 12.9351L13.8339 11.5209ZM11.3904 11.5213L9.97622 12.9355L9.97667 12.9359L11.3904 11.5213ZM7.77722 7.90805L6.36234 9.3216L6.36301 9.32226L7.77722 7.90805ZM4.30281 7.14795L5.00777 5.27631L3.80067 4.82166L2.8886 5.73374L4.30281 7.14795ZM1.52887 9.92191L2.94308 11.3361L2.94308 11.3361L1.52887 9.92191ZM1.52887 15.0782L2.94308 13.664L2.94308 13.664L1.52887 15.0782ZM4.3027 17.852L2.88848 19.2662L3.79986 20.1776L5.00635 19.7242L4.3027 17.852ZM7.77722 17.092L6.36301 15.6778L6.36251 15.6783L7.77722 17.092ZM11.3901 13.4792L9.97647 12.0644L9.97588 12.0649L11.3901 13.4792ZM13.8339 13.4795L12.419 14.893L12.4197 14.8937L13.8339 13.4795ZM17.4335 17.0789L18.8482 15.6652L18.8476 15.6646L17.4335 17.0789ZM20.6301 17.8411L19.8859 19.6975L21.111 20.1887L22.0443 19.2553L20.6301 17.8411ZM23.3931 15.0782L24.8073 16.4924L24.8074 16.4923L23.3931 15.0782ZM24.8073 8.50769L22.0443 5.74474L19.2159 8.57316L21.9789 11.3361L24.8073 8.50769ZM19.8864 5.30236C20.0215 5.24827 20.2083 5.19852 20.4339 5.19852V9.19852C20.7986 9.19852 21.1171 9.11836 21.3738 9.01554L19.8864 5.30236ZM20.4339 5.19852H19.1776V9.19852H20.4339V5.19852ZM19.1776 5.19852C17.9977 5.19852 16.8529 5.67273 16.0188 6.50749L18.8482 9.33492C18.9319 9.25118 19.0587 9.19852 19.1776 9.19852V5.19852ZM16.0192 6.50702L12.4196 10.1067L15.2481 12.9351L18.8477 9.3354L16.0192 6.50702ZM12.4196 10.1067C12.4739 10.0524 12.5471 10.0263 12.6121 10.0263V14.0263C13.5616 14.0263 14.5201 13.6632 15.2481 12.9351L12.4196 10.1067ZM12.6121 10.0263C12.6767 10.0263 12.75 10.0524 12.8042 10.1066L9.97667 12.9359C10.7044 13.6632 11.6623 14.0263 12.6121 14.0263V10.0263ZM12.8046 10.107L9.19143 6.49384L6.36301 9.32226L9.97622 12.9355L12.8046 10.107ZM9.1921 6.4945C8.35771 5.65933 7.21281 5.18537 6.03306 5.18537V9.18537C6.15223 9.18537 6.27887 9.23805 6.36234 9.3216L9.1921 6.4945ZM6.03306 5.18537H4.48839V9.18537H6.03306V5.18537ZM4.48839 5.18537C4.74003 5.18537 4.9257 5.2454 5.00777 5.27631L3.59786 9.01959C3.79617 9.09429 4.10497 9.18537 4.48839 9.18537V5.18537ZM2.8886 5.73374L0.11465 8.5077L2.94308 11.3361L5.71703 8.56216L2.8886 5.73374ZM0.114652 8.5077C-2.0903 10.7127 -2.0903 14.2874 0.114652 16.4924L2.94308 13.664C2.30022 13.0211 2.30022 11.979 2.94308 11.3361L0.114652 8.5077ZM0.11465 16.4924L2.88848 19.2662L5.71692 16.4378L2.94308 13.664L0.11465 16.4924ZM5.00635 19.7242C4.92551 19.7545 4.74008 19.8146 4.48839 19.8146V15.8146C4.10492 15.8146 3.79635 15.9057 3.59905 15.9799L5.00635 19.7242ZM4.48839 19.8146H6.03306V15.8146H4.48839V19.8146ZM6.03306 19.8146C7.21279 19.8146 8.3576 19.3407 9.19194 18.5057L6.36251 15.6783C6.27898 15.7619 6.15226 15.8146 6.03306 15.8146V19.8146ZM9.19144 18.5062L12.8043 14.8934L9.97588 12.0649L6.36301 15.6778L9.19144 18.5062ZM12.8037 14.8939C12.7155 14.9822 12.6356 14.9897 12.6122 14.9897C12.5887 14.9897 12.5079 14.9821 12.419 14.893L15.2488 12.0659C13.8145 10.6303 11.4098 10.6322 9.97647 12.0644L12.8037 14.8939ZM12.4197 14.8937L16.0193 18.4931L18.8476 15.6646L15.248 12.0652L12.4197 14.8937ZM16.0188 18.4926C16.8529 19.3273 17.9977 19.8015 19.1776 19.8015V15.8015C19.0587 15.8015 18.9319 15.7489 18.8482 15.6652L16.0188 18.4926ZM19.1776 19.8015H20.4339V15.8015H19.1776V19.8015ZM20.4339 19.8015C20.2086 19.8015 20.0216 19.7519 19.8859 19.6975L21.3744 15.9848C21.117 15.8816 20.7983 15.8015 20.4339 15.8015V19.8015ZM22.0443 19.2553L24.8073 16.4924L21.9789 13.664L19.2159 16.4269L22.0443 19.2553ZM24.8074 16.4923C27.0121 14.2874 27.0121 10.7127 24.8074 8.50773L21.9788 11.3361C22.6216 11.9789 22.6216 13.0211 21.9788 13.664L24.8074 16.4923Z" fill="white" mask="url(#path-3-inside-1_172_858)"/>
</svg>
