<svg width="20" height="20" viewBox="0 0 20 20" fill="none" xmlns="http://www.w3.org/2000/svg">
<path fill-rule="evenodd" clip-rule="evenodd" d="M4.07043 1.7585C5.40471 0.866967 6.97339 0.391113 8.57811 0.391113H8.57815C10.73 0.39125 12.7936 1.24611 14.3151 2.76767C15.8367 4.28922 16.6916 6.35285 16.6917 8.50466V8.50471C16.6917 10.1094 16.2158 11.6781 15.3243 13.0124C15.1678 13.2466 14.9998 13.4717 14.8211 13.687L19.7448 18.6108C20.0377 18.9037 20.0377 19.3785 19.7448 19.6714C19.4519 19.9643 18.9771 19.9643 18.6842 19.6714L13.7604 14.7477C13.138 15.2643 12.4385 15.6878 11.683 16.0007C10.2005 16.6148 8.56911 16.7755 6.99522 16.4624C5.42134 16.1493 3.97564 15.3766 2.84093 14.2419C1.70622 13.1072 0.933477 11.6615 0.620412 10.0876C0.307347 8.51371 0.468023 6.88233 1.08212 5.39977C1.69622 3.9172 2.73616 2.65003 4.07043 1.7585ZM8.57806 1.89111C7.27003 1.89112 5.99138 2.279 4.90379 3.0057C3.81619 3.73242 2.96851 4.76532 2.46794 5.97379C1.96737 7.18227 1.8364 8.51204 2.09159 9.79496C2.34678 11.0779 2.97666 12.2563 3.90159 13.1812C4.82652 14.1062 6.00495 14.736 7.28786 14.9912C8.57077 15.2464 9.90054 15.1154 11.109 14.6149C12.3175 14.1143 13.3504 13.2666 14.0771 12.179C14.8038 11.0914 15.1917 9.81278 15.1917 8.50476M8.57811 1.89111C10.3321 1.89124 12.0142 2.58806 13.2545 3.82833C14.4947 5.06859 15.1916 6.75071 15.1917 8.50471" fill="#C4C4CC"/>
</svg>
